<?xml version="1.0" encoding="utf-8"?>
<!-- Generator: Adobe Illustrator 22.0.0, SVG Export Plug-In . SVG Version: 6.00 Build 0)  -->
<svg version="1.1" id="Layer_1" xmlns="http://www.w3.org/2000/svg" xmlns:xlink="http://www.w3.org/1999/xlink" x="0px" y="0px"
	 viewBox="0 0 256 256" style="enable-background:new 0 0 256 256;" xml:space="preserve">
<style type="text/css">
	.st0{fill:#391218;}
	.st1{fill:#EB9486;}
	.st2{fill:#A67F8E;}
	.st3{fill:#C99FA3;}
</style>
<g>
	<g>
		<path class="st0" d="M122.7,112.8l6.6,0c3,0,4.5,1.4,4.5,4.2v11.1c-3.6,1.1-7.4,1.7-11.4,1.7c-2,0-3.8-0.3-5.4-1
			c-1.6-0.7-2.9-1.6-3.9-2.9c-1.1-1.3-1.8-2.8-2.4-4.6c-0.5-1.8-0.8-3.9-0.8-6.2c0-2.6,0.4-4.8,1.1-6.7c0.7-1.9,1.7-3.5,3-4.7
			c1.2-1.3,2.7-2.2,4.3-2.8c1.6-0.6,3.3-0.9,5.1-0.9c3.6,0,7.1,1,10.3,3c0,0.4-0.1,0.9-0.3,1.4c-0.2,0.5-0.4,0.9-0.7,1.3
			c-0.3,0.4-0.6,0.8-0.9,1.2c-0.4,0.4-0.7,0.7-1.1,0.9c-2.3-1.5-4.7-2.3-7.1-2.3c-4.6,0-6.9,3.2-6.9,9.6c0,6.4,2.3,9.6,7,9.6
			c0.6,0,1.3,0,1.9-0.1c0.6-0.1,1.2-0.1,1.8-0.3v-2.8c0-0.6,0-1.2,0-1.7c0-0.5,0-0.9,0.1-1.2h-2.1c-1.2,0-2-0.2-2.5-0.7
			c-0.5-0.5-0.7-1.2-0.7-2.2C122.3,114.7,122.4,113.8,122.7,112.8z"/>
		<path class="st0" d="M153.6,110c2,2,3,4.9,3,8.7c0,1.7-0.2,3.2-0.7,4.6c-0.4,1.4-1.1,2.5-1.9,3.5c-0.8,1-1.8,1.7-3.1,2.2
			c-1.2,0.5-2.6,0.8-4.2,0.8c-1.6,0-3-0.3-4.1-0.8c-1.2-0.5-2.2-1.3-3-2.3c-0.8-1-1.5-2.1-1.9-3.5c-0.4-1.4-0.6-2.9-0.6-4.5
			c0-1.7,0.2-3.2,0.6-4.6c0.4-1.4,1-2.5,1.9-3.5c0.8-1,1.8-1.7,3-2.3c1.2-0.5,2.6-0.8,4.2-0.8C149.6,107.5,151.9,108.4,153.6,110z
			 M146.9,112.4c-0.6,0-1.1,0.1-1.5,0.4c-0.4,0.3-0.7,0.7-0.9,1.2s-0.4,1.1-0.5,1.7c-0.1,0.7-0.1,1.4-0.1,2.1c0,1.2,0,2.2,0.1,3.1
			c0.1,0.9,0.2,1.6,0.4,2.1c0.2,0.6,0.5,1,0.9,1.3c0.4,0.3,0.9,0.4,1.5,0.4c1.2,0,2.1-0.5,2.5-1.6s0.6-2.6,0.6-4.6
			c0-2-0.2-3.6-0.6-4.6C148.9,113,148.1,112.4,146.9,112.4z"/>
		<path class="st0" d="M160.3,122v-8.6c0-1.8-0.3-3.2-1-4.2c1-0.9,2.3-1.4,3.8-1.4c1.5,0,2.5,0.3,3,1c0.5,0.7,0.8,1.7,0.8,3.1v8.9
			c0,1,0.1,1.7,0.3,2.1c0.2,0.4,0.8,0.7,1.8,0.7c0.9,0,1.9-0.5,2.8-1.4v-14.1c0.9-0.2,2-0.3,3.2-0.3c1.2,0,2.3,0.1,3.3,0.3v15
			c0,1.5,0.4,2.5,1.2,3.1c-0.1,0.6-0.4,1.2-0.8,1.8c-0.4,0.7-0.8,1.1-1.2,1.5c-2.3-0.1-4-1.1-5-2.9c-2.2,2-4.3,3-6.3,3
			c-2,0-3.5-0.7-4.5-2C160.8,126.1,160.3,124.3,160.3,122z"/>
		<path class="st0" d="M182.2,111.2c0.1-0.6,0.4-1.2,0.8-1.9c0.4-0.7,0.8-1.2,1.2-1.5c2.6,0.2,4.4,1.5,5.4,3.8
			c1.1-2.5,2.8-3.8,5.3-3.8c0.7,0,1.7,0.1,2.8,0.3c0,0.9-0.1,1.9-0.4,3.1c-0.3,1.2-0.7,2.2-1.2,3.1c-0.5-0.2-1.2-0.3-2.1-0.4
			c-1.4,0-2.6,0.7-3.4,2.1v13.1c-0.9,0.2-2,0.3-3.3,0.3s-2.3-0.1-3.3-0.3v-13.6C183.8,113.5,183.3,112,182.2,111.2z"/>
		<path class="st0" d="M214.7,110c2,2,3,4.9,3,8.7c0,1.7-0.2,3.2-0.7,4.6c-0.4,1.4-1.1,2.5-1.9,3.5c-0.8,1-1.8,1.7-3.1,2.2
			c-1.2,0.5-2.6,0.8-4.2,0.8c-1.6,0-3-0.3-4.1-0.8c-1.2-0.5-2.2-1.3-3-2.3c-0.8-1-1.5-2.1-1.9-3.5c-0.4-1.4-0.6-2.9-0.6-4.5
			c0-1.7,0.2-3.2,0.6-4.6c0.4-1.4,1-2.5,1.9-3.5c0.8-1,1.8-1.7,3-2.3c1.2-0.5,2.6-0.8,4.2-0.8C210.8,107.5,213,108.4,214.7,110z
			 M208,112.4c-0.6,0-1.1,0.1-1.5,0.4c-0.4,0.3-0.7,0.7-0.9,1.2s-0.4,1.1-0.5,1.7c-0.1,0.7-0.1,1.4-0.1,2.1c0,1.2,0,2.2,0.1,3.1
			c0.1,0.9,0.2,1.6,0.4,2.1c0.2,0.6,0.5,1,0.9,1.3c0.4,0.3,0.9,0.4,1.5,0.4c1.2,0,2.1-0.5,2.5-1.6s0.6-2.6,0.6-4.6
			c0-2-0.2-3.6-0.6-4.6C210,113,209.2,112.4,208,112.4z"/>
		<path class="st0" d="M221.4,122v-8.6c0-1.8-0.3-3.2-1-4.2c1-0.9,2.3-1.4,3.8-1.4c1.5,0,2.5,0.3,3,1c0.5,0.7,0.8,1.7,0.8,3.1v8.9
			c0,1,0.1,1.7,0.3,2.1c0.2,0.4,0.8,0.7,1.8,0.7c0.9,0,1.9-0.5,2.8-1.4v-14.1c0.9-0.2,2-0.3,3.2-0.3c1.2,0,2.3,0.1,3.3,0.3v15
			c0,1.5,0.4,2.5,1.2,3.1c-0.1,0.6-0.4,1.2-0.8,1.8c-0.4,0.7-0.8,1.1-1.2,1.5c-2.3-0.1-4-1.1-5-2.9c-2.2,2-4.3,3-6.3,3
			s-3.5-0.7-4.5-2C221.9,126.1,221.4,124.3,221.4,122z"/>
	</g>
	<g>
		<path class="st1" d="M122.9,145.2c0,8.5-3.8,8.5-6.1,8.5h-3.9v-16.9h3.9C119.1,136.7,122.9,136.7,122.9,145.2z M121.5,145.2
			c0-5.7-1.5-7.3-4.3-7.3h-3.1v14.7h3.1C120.1,152.5,121.5,150.9,121.5,145.2z"/>
		<path class="st1" d="M128.5,137.9v6.9h6.8v1.1h-6.8v6.6h8.1v1.1h-9.3v-16.9h9.3v1.1H128.5z"/>
		<path class="st1" d="M151.8,136.7l-3.8,16.9h-3.4l-3.8-16.9h1.3l3.5,15.8h1.3l3.5-15.8H151.8z"/>
		<path class="st1" d="M166.4,149.4c0,2.9-2.3,4.5-5.6,4.5c-2.8,0-4.7-0.9-5.8-2.8l1.3-0.6c0.8,1.5,2.2,2.3,4.5,2.3
			c2.8,0,4.3-1.2,4.3-3.3c0-1.8-1.7-3-4.5-4c-2.6-0.9-4.8-2.5-4.8-5c0-2.7,2.2-3.9,5.1-3.9c2.4,0,4.1,0.9,5.1,2.8l-1.2,0.6
			c-0.7-1.5-1.8-2.2-3.9-2.2c-2.1,0-3.8,0.8-3.8,2.7c0,1.7,1.3,2.9,3.4,3.7C164.1,145.5,166.4,146.9,166.4,149.4z"/>
		<path class="st1" d="M180.8,137.9h-4.9v15.8h-1.2v-15.8h-4.9v-1.1h11.1V137.9z"/>
		<path class="st1" d="M184.6,146.9v-10.1h1.2v10.4c0,4.4,1.3,5.7,3.9,5.7c2.6,0,3.9-1.3,3.9-5.7v-10.4h1.2v10.1
			c0,5.5-1.8,7.1-5.2,7.1C186.5,154,184.6,152.4,184.6,146.9z"/>
		<path class="st1" d="M210,145.2c0,8.5-3.8,8.5-6.1,8.5h-3.9v-16.9h3.9C206.3,136.7,210,136.7,210,145.2z M208.7,145.2
			c0-5.7-1.5-7.3-4.3-7.3h-3.1v14.7h3.1C207.3,152.5,208.7,150.9,208.7,145.2z"/>
		<path class="st1" d="M219.4,137.9v14.7h4v1.1h-9.2v-1.1h3.9v-14.7h-3.9v-1.1h9.2v1.1H219.4z"/>
		<path class="st1" d="M227.7,145.3c0-7.1,2.6-8.7,5.7-8.7c3,0,5.6,1.5,5.6,8.7c0,7.1-2.6,8.7-5.6,8.7
			C230.3,154,227.7,152.4,227.7,145.3z M237.6,145.3c0-6.2-1.9-7.5-4.3-7.5c-2.4,0-4.3,1.3-4.3,7.5c0,6.2,1.9,7.5,4.3,7.5
			C235.7,152.8,237.6,151.5,237.6,145.3z"/>
	</g>
	<path class="st0" d="M84.4,141.8c0-5.1-2.7-7.7-8.1-7.7l-12,0.1c-0.6,1.8-0.8,3.5-0.8,5c0,1.8,0.4,3.1,1.3,4
		c0.8,0.8,2.4,1.3,4.6,1.3h3.8c-0.1,0.6-0.1,1.4-0.1,2.2c0,0.9,0,1.9,0,3.1v5.1c-1.1,0.2-2.2,0.4-3.3,0.5c-1.1,0.1-2.2,0.2-3.4,0.2
		c-8.5,0-12.8-5.8-12.8-17.4c0-3.8,0.5-7,1.4-9.5c-4.6,2.6-9.8,3.7-13.2,2.1c-0.5,2.3-0.7,4.8-0.7,7.5c0,4.2,0.5,8,1.5,11.4
		c1,3.4,2.4,6.2,4.3,8.5c1.9,2.3,4.3,4.1,7.1,5.3s27,10.7,30.6,9.2c5.2-9.9,0-21.3,0-21.3V141.8z"/>
	<path class="st1" d="M53.8,164.4c-1.5-0.6-2.8-1.4-4-2.3c-17.5-3.3-30.8-18.8-30.8-37.2c0-20.9,17-37.9,37.9-37.9
		c20.9,0,37.9,17,37.9,37.9c0,9.6-3.6,18.4-9.5,25c0,0,1.2,2,1.5,3.7c7.6-7.5,11.7-17.3,11.7-28.8c0-22.9-18.6-41.6-41.6-41.6
		c-22.9,0-41.6,18.6-41.6,41.6c0,22.9,18.6,41.6,41.6,41.6c0.6,0,1.1-0.1,1.7-0.1C56.2,165.5,54.4,164.7,53.8,164.4z"/>
	<g>
		<g>
			<path class="st2" d="M79.1,118.5c-1.4-1.7-2.6-3.8-2.7-6c-0.8,1.7-1.7,3.3-2.8,4.8c2,2.4,8.4,7.9,11.7,6.4
				C83,122.2,80.9,120.5,79.1,118.5z"/>
			<path class="st3" d="M62.5,97.2c-13.5,0-24.4,10.9-24.4,24.4c0,1.1,0.2,2.1,0.6,2.9c1.2-0.2,2.3-0.3,3.5-0.5
				c1.8-0.3,3.6-0.6,5.3-1.1c3.5-0.8,6.9-1.9,10.1-3.4c3.3-1.4,6.1-3.5,8.7-5.8c2.5-2.5,4.9-5.4,6.4-8.7l0.2,0
				c-1,3.6-3.2,6.7-5.6,9.5c-2.4,2.8-5.5,5-8.9,6.6c-3.4,1.6-7,2.6-10.6,3.2c-2.9,0.5-5.9,0.7-8.8,0.7c3.7,6.3,19.1,2.4,28.2-3.4
				c1.5-1.2,2.9-2.5,4-4c1.6-1.8,2.9-3.9,4.2-6c1.3-2.1,2.4-4.4,3.6-6.7l0.2,0c-0.5,2.3-1.3,4.5-2.2,6.6c0.4,1.2,0.8,2.1,1.4,2.9
				c0.7,1,1.3,2,2.2,2.9c0.7,1,1.6,1.9,2.5,2.9c0.8,1,1.7,2,2.5,3.3l0,0.1c0.7-0.3,1.2-1,1.5-2C86.9,108.1,76,97.2,62.5,97.2z"/>
		</g>
		<path class="st2" d="M72.7,105c-18,19.9-34.1,11.8-34.1,11.8s-1,4.4,0.1,7.8C41.5,124.5,61.9,124.4,72.7,105z"/>
		<g>
			<path class="st2" d="M72.7,105.6C72.7,105.5,72.7,105.5,72.7,105.6c-1.1,3.3-3.1,6.3-5.4,9c-2.4,2.8-5.5,5-8.9,6.6
				c-3.4,1.6-7,2.6-10.6,3.2c-2.9,0.5-5.9,0.7-8.8,0.7c3.7,6.3,19.1,2.4,28.2-3.4c0.5-0.4,1-0.8,1.5-1.3
				C69.8,118.9,72,115.2,72.7,105.6z"/>
		</g>
	</g>
</g>
</svg>
