<?xml version="1.0" encoding="utf-8"?>
<!-- Generator: Adobe Illustrator 22.0.0, SVG Export Plug-In . SVG Version: 6.00 Build 0)  -->
<svg version="1.1" id="Layer_1" xmlns="http://www.w3.org/2000/svg" xmlns:xlink="http://www.w3.org/1999/xlink" x="0px" y="0px"
	 viewBox="0 0 512 220" style="enable-background:new 0 0 512 220;" xml:space="preserve">
<style type="text/css">
	.st0{fill:#391218;}
	.st1{fill:#EB9486;}
	.st2{fill:#A67F8E;}
	.st3{fill:#C99FA3;}
</style>
<g>
	<g>
		<path class="st0" d="M245,82l13.1-0.1c5.9,0,8.9,2.8,8.9,8.4v22c-7.2,2.3-14.7,3.4-22.6,3.4c-4,0-7.6-0.7-10.6-2
			c-3.1-1.3-5.7-3.3-7.8-5.8s-3.7-5.6-4.7-9.2c-1.1-3.6-1.6-7.8-1.6-12.4c0-5.1,0.7-9.5,2.2-13.2c1.5-3.8,3.5-6.9,5.9-9.4
			s5.3-4.4,8.6-5.6c3.2-1.3,6.6-1.9,10.1-1.9c7.2,0,14,2,20.4,6c-0.1,0.9-0.3,1.8-0.6,2.7c-0.4,0.9-0.8,1.8-1.3,2.7
			s-1.1,1.6-1.8,2.3c-0.7,0.7-1.4,1.3-2.1,1.8c-4.6-3-9.3-4.5-14-4.5c-9.1,0-13.6,6.3-13.6,19c0,12.6,4.6,19,13.9,19
			c1.3,0,2.5-0.1,3.7-0.2c1.2-0.1,2.4-0.3,3.5-0.5v-5.6c0-1.3,0-2.4,0-3.3c0-0.9,0.1-1.8,0.1-2.4h-4.2c-2.4,0-4.1-0.5-5-1.4
			s-1.4-2.4-1.4-4.3C244.1,85.8,244.4,84,245,82z"/>
		<path class="st0" d="M306.3,76.4c4,4,6,9.7,6,17.2c0,3.3-0.4,6.4-1.3,9.1c-0.9,2.7-2.1,5.1-3.8,7c-1.6,1.9-3.7,3.4-6.1,4.4
			s-5.1,1.5-8.3,1.5c-3.1,0-5.9-0.5-8.2-1.6c-2.4-1.1-4.4-2.5-6-4.5c-1.6-1.9-2.9-4.2-3.7-7c-0.8-2.7-1.3-5.7-1.3-9s0.4-6.4,1.3-9.1
			c0.8-2.7,2.1-5,3.7-7c1.6-1.9,3.6-3.5,6-4.5c2.4-1.1,5.1-1.6,8.3-1.6C298.4,71.5,302.9,73.1,306.3,76.4z M293,81.3
			c-1.2,0-2.2,0.3-3,0.9c-0.8,0.6-1.4,1.4-1.8,2.4s-0.8,2.2-0.9,3.5c-0.2,1.3-0.3,2.7-0.3,4.2c0,2.3,0.1,4.4,0.2,6.1
			c0.1,1.7,0.4,3.1,0.8,4.3s1,2,1.8,2.5c0.8,0.6,1.8,0.8,3,0.8c2.5,0,4.1-1.1,4.9-3.2c0.8-2.1,1.2-5.2,1.2-9.1c0-4-0.4-7.1-1.2-9.1
			C296.9,82.3,295.3,81.3,293,81.3z"/>
		<path class="st0" d="M319.6,100.3V83.2c0-3.6-0.7-6.4-2-8.4c2.1-1.8,4.6-2.8,7.5-2.8c3,0,5,0.7,6,2c1.1,1.3,1.6,3.4,1.6,6.1v17.7
			c0,1.9,0.2,3.4,0.7,4.3c0.4,0.9,1.6,1.3,3.5,1.3c1.8,0,3.7-0.9,5.6-2.8V72.7c1.8-0.3,4-0.5,6.4-0.5s4.6,0.2,6.6,0.5v29.7
			c0,3,0.8,5,2.3,6.1c-0.3,1.1-0.8,2.3-1.6,3.6c-0.8,1.3-1.6,2.3-2.4,2.9c-4.6-0.2-7.8-2.1-9.9-5.8c-4.4,4-8.5,5.9-12.4,5.9
			s-6.9-1.4-8.9-4.1C320.6,108.4,319.6,104.8,319.6,100.3z"/>
		<path class="st0" d="M363.1,78.8c0.3-1.1,0.8-2.4,1.6-3.7c0.8-1.4,1.6-2.4,2.3-3c5.1,0.4,8.7,2.9,10.7,7.6c2.1-5,5.6-7.5,10.4-7.5
			c1.4,0,3.3,0.2,5.5,0.7c0,1.7-0.3,3.8-0.9,6.1c-0.6,2.4-1.4,4.4-2.4,6.1c-0.9-0.3-2.4-0.6-4.3-0.8c-2.8,0-5.1,1.4-6.8,4.3v26
			c-1.8,0.3-4,0.5-6.5,0.5s-4.7-0.2-6.6-0.5v-27C366.3,83.3,365.3,80.4,363.1,78.8z"/>
		<path class="st0" d="M427.6,76.4c4,4,6,9.7,6,17.2c0,3.3-0.4,6.4-1.3,9.1c-0.9,2.7-2.1,5.1-3.8,7c-1.6,1.9-3.7,3.4-6.1,4.4
			s-5.1,1.5-8.3,1.5c-3.1,0-5.9-0.5-8.2-1.6c-2.4-1.1-4.4-2.5-6-4.5c-1.6-1.9-2.9-4.2-3.7-7c-0.8-2.7-1.3-5.7-1.3-9s0.4-6.4,1.3-9.1
			c0.8-2.7,2.1-5,3.7-7c1.6-1.9,3.6-3.5,6-4.5c2.4-1.1,5.1-1.6,8.3-1.6C419.8,71.5,424.2,73.1,427.6,76.4z M414.3,81.3
			c-1.2,0-2.2,0.3-3,0.9c-0.8,0.6-1.4,1.4-1.8,2.4s-0.8,2.2-0.9,3.5c-0.2,1.3-0.3,2.7-0.3,4.2c0,2.3,0.1,4.4,0.2,6.1
			c0.1,1.7,0.4,3.1,0.8,4.3c0.4,1.1,1,2,1.8,2.5c0.8,0.6,1.8,0.8,3,0.8c2.5,0,4.1-1.1,4.9-3.2c0.8-2.1,1.2-5.2,1.2-9.1
			c0-4-0.4-7.1-1.2-9.1C418.2,82.3,416.6,81.3,414.3,81.3z"/>
		<path class="st0" d="M440.9,100.3V83.2c0-3.6-0.7-6.4-2-8.4c2.1-1.8,4.6-2.8,7.5-2.8c3,0,5,0.7,6,2c1.1,1.3,1.6,3.4,1.6,6.1v17.7
			c0,1.9,0.2,3.4,0.7,4.3c0.4,0.9,1.6,1.3,3.5,1.3c1.8,0,3.7-0.9,5.6-2.8V72.7c1.8-0.3,4-0.5,6.4-0.5s4.6,0.2,6.6,0.5v29.7
			c0,3,0.8,5,2.3,6.1c-0.3,1.1-0.8,2.3-1.6,3.6c-0.8,1.3-1.6,2.3-2.4,2.9c-4.6-0.2-7.8-2.1-9.9-5.8c-4.4,4-8.5,5.9-12.4,5.9
			s-6.9-1.4-8.9-4.1C441.9,108.4,440.9,104.8,440.9,100.3z"/>
	</g>
	<g>
		<path class="st1" d="M245.3,146.3c0,16.8-7.4,16.8-12.2,16.8h-7.6v-33.6h7.6C237.8,129.5,245.3,129.5,245.3,146.3z M242.7,146.3
			c0-11.4-2.9-14.6-8.6-14.6h-6.2v29.1h6.2C239.8,160.9,242.7,157.7,242.7,146.3z"/>
		<path class="st1" d="M256.5,131.7v13.7H270v2.2h-13.5v13.2h16.1v2.3H254v-33.6h18.6v2.3h-16.1V131.7z"/>
		<path class="st1" d="M302.7,129.5l-7.5,33.6h-6.7l-7.5-33.6h2.6l7,31.4h2.6l7-31.4H302.7z"/>
		<path class="st1" d="M331.7,154.7c0,5.8-4.6,8.9-11.2,8.9c-5.5,0-9.4-1.7-11.5-5.6l2.5-1.3c1.5,3,4.4,4.6,9,4.6
			c5.5,0,8.6-2.4,8.6-6.5c0-3.7-3.3-5.9-9-8c-5.2-1.9-9.5-4.9-9.5-9.9c0-5.3,4.4-7.8,10.1-7.8c4.8,0,8.2,1.8,10,5.5l-2.4,1.2
			c-1.3-2.9-3.6-4.4-7.7-4.4s-7.4,1.6-7.4,5.4c0,3.3,2.6,5.7,6.8,7.3C327.1,146.9,331.7,149.6,331.7,154.7z"/>
		<path class="st1" d="M360.2,131.7h-9.8v31.4H348v-31.4h-9.8v-2.3h22V131.7z"/>
		<path class="st1" d="M367.9,149.6v-20.1h2.5V150c0,8.8,2.6,11.3,7.8,11.3c5.2,0,7.8-2.5,7.8-11.3v-20.6h2.5v20.1
			c0,11-3.6,14.1-10.2,14.1C371.6,163.6,367.9,160.6,367.9,149.6z"/>
		<path class="st1" d="M418.3,146.3c0,16.8-7.4,16.8-12.2,16.8h-7.6v-33.6h7.6C410.9,129.5,418.3,129.5,418.3,146.3z M415.7,146.3
			c0-11.4-2.9-14.6-8.6-14.6H401v29.1h6.2C412.8,160.9,415.7,157.7,415.7,146.3z"/>
		<path class="st1" d="M437,131.7v29.1h7.9v2.3h-18.2v-2.3h7.8v-29.1h-7.8v-2.3h18.2v2.3H437z"/>
		<path class="st1" d="M453.3,146.4c0-14.1,5.2-17.2,11.2-17.2s11.2,3.1,11.2,17.2c0,14.2-5.2,17.3-11.2,17.3
			C458.5,163.6,453.3,160.6,453.3,146.4z M473,146.4c0-12.3-3.7-14.9-8.5-14.9s-8.6,2.6-8.6,14.9s3.7,14.9,8.6,14.9
			C469.3,161.3,473,158.7,473,146.4z"/>
	</g>
	<path class="st0" d="M169,139.5c0-10.1-5.4-15.2-16.1-15.2l-23.9,0.2c-1.1,3.6-1.7,6.9-1.7,9.9c0,3.6,0.8,6.2,2.5,7.8
		c1.7,1.7,4.7,2.5,9.1,2.5h7.6c-0.1,1.2-0.2,2.7-0.2,4.4c-0.1,1.7-0.1,3.8-0.1,6.1v10.2c-2.1,0.4-4.3,0.7-6.5,0.9
		c-2.2,0.2-4.4,0.3-6.8,0.3c-17,0-25.4-11.5-25.4-34.6c0-7.6,1-13.8,2.8-18.9c-9.1,5.1-19.4,7.4-26.2,4.2c-0.9,4.6-1.4,9.5-1.4,14.9
		c0,8.4,1,16,2.9,22.6s4.8,12.3,8.6,16.8c3.8,4.6,8.5,8.1,14.2,10.5c5.6,2.4,53.5,21.3,60.7,18.3c10.4-19.7,0-42.3,0-42.3v-18.6H169
		z"/>
	<path class="st1" d="M108.1,184.5c-2.9-1.2-5.5-2.8-7.9-4.5C65.4,173.3,39,142.7,39,106c0-41.5,33.8-75.3,75.3-75.3
		s75.3,33.8,75.3,75.3c0,19.1-7.2,36.4-18.9,49.7c0,0,2.3,4,2.9,7.4c15-14.9,23.1-34.3,23.1-57.1c0-45.5-37-82.5-82.5-82.5
		s-82.5,37-82.5,82.5s37,82.5,82.5,82.5c1.2,0,2.3-0.1,3.4-0.2C113,186.5,109.4,185.1,108.1,184.5z"/>
	<g>
		<g>
			<path class="st2" d="M158.5,93.2c-2.8-3.3-5.2-7.5-5.4-11.9c-1.6,3.3-3.5,6.5-5.6,9.5c3.9,4.8,16.7,15.6,23.2,12.7
				C166.2,100.7,162,97.3,158.5,93.2z"/>
			<path class="st3" d="M125.4,51C98.7,51,77,72.7,77,99.4c0,2.3,0.4,4.2,1.2,5.8c2.3-0.3,4.6-0.6,6.9-1.1c3.6-0.5,7.1-1.2,10.6-2.1
				c7-1.5,13.8-3.7,20.1-6.7c6.5-2.8,12.1-6.9,17.3-11.6c5-5.1,9.6-10.6,12.6-17.3l0.3,0.1c-2.1,7.1-6.4,13.3-11.1,18.9
				c-4.9,5.5-11,9.9-17.6,13.1c-6.7,3.2-13.8,5.1-21.1,6.4c-5.8,1-11.6,1.4-17.5,1.4c7.4,12.6,37.9,4.8,56-6.8
				c2.9-2.4,5.7-4.9,7.9-8c3.2-3.5,5.7-7.7,8.2-11.9s4.8-8.7,7.1-13.3l0.3,0.1c-1,4.5-2.5,8.9-4.4,13.1c0.7,2.3,1.7,4.1,2.8,5.8
				c1.3,1.9,2.6,3.9,4.4,5.7c1.4,2,3.2,3.8,4.9,5.8s3.4,4.1,4.9,6.5l-0.1,0.1c1.3-0.7,2.4-2,3.1-4C173.9,72.7,152.2,51,125.4,51z"/>
		</g>
		<path class="st2" d="M145.7,66.4C110,105.9,78,89.8,78,89.8s-2,8.7,0.2,15.4C83.8,105.2,124.3,105,145.7,66.4z"/>
		<g>
			<path class="st2" d="M145.7,67.6C145.7,67.6,145.7,67.5,145.7,67.6c-2.2,6.6-6.3,12.5-10.8,17.8c-4.9,5.5-11,9.9-17.6,13.1
				c-6.7,3.2-13.8,5.1-21.1,6.4c-5.8,1-11.6,1.4-17.5,1.4c7.4,12.6,37.9,4.8,56-6.8c1-0.8,2-1.7,2.9-2.5
				C140,94.2,144.4,86.7,145.7,67.6z"/>
		</g>
	</g>
</g>
</svg>
