<?xml version="1.0" encoding="utf-8"?>
<!-- Generator: Adobe Illustrator 22.0.0, SVG Export Plug-In . SVG Version: 6.00 Build 0)  -->
<svg version="1.1" id="Layer_1" xmlns="http://www.w3.org/2000/svg" xmlns:xlink="http://www.w3.org/1999/xlink" x="0px" y="0px"
	 viewBox="0 0 1920 1080" style="enable-background:new 0 0 1920 1080;" xml:space="preserve">
<style type="text/css">
	.st0{opacity:0.3;enable-background:new    ;}
	.st1{fill:#837FA5;}
	.st2{opacity:0.3;fill:#837FA5;enable-background:new    ;}
	.st3{opacity:0.72;fill:#D7ECF9;enable-background:new    ;}
	.st4{fill:#D4E8FF;}
	.st5{opacity:0.72;fill:none;stroke:#8AC1DD;stroke-width:3;stroke-miterlimit:10;enable-background:new    ;}
	.st6{fill:#FFFFFF;}
	.st7{opacity:0.72;fill:#FFFFFF;enable-background:new    ;}
	.st8{opacity:0.72;fill:#8AC1DD;enable-background:new    ;}
	.st9{opacity:0.72;}
	.st10{fill:none;}
	.st11{fill:#8AC1DD;}
	.st12{opacity:0.5;fill:#8AC1DD;enable-background:new    ;}
	.st13{opacity:0.52;fill:#8AC1DD;enable-background:new    ;}
	.st14{fill:#606060;}
	.st15{opacity:0.25;fill:#FFFFFF;enable-background:new    ;}
	.st16{opacity:0.44;}
	.st17{opacity:0.44;fill:#FFFFFF;enable-background:new    ;}
	.st18{opacity:0.58;fill:url(#SVGID_1_);enable-background:new    ;}
	.st19{opacity:0.58;fill:url(#SVGID_2_);enable-background:new    ;}
	.st20{fill:#C89FA2;}
</style>
<g class="st0">
	<path class="st1" d="M257.8,326c-59.3,0-107.6-48.3-107.6-107.6c0-59.3,48.3-107.6,107.6-107.6s107.6,48.3,107.6,107.6
		C365.4,277.8,317.2,326,257.8,326z M257.8,121.3c-53.6,0-97.2,43.6-97.2,97.2s43.6,97.2,97.2,97.2S355,272,355,218.4
		S311.4,121.3,257.8,121.3z"/>
</g>
<circle class="st2" cx="258.5" cy="216" r="74.2"/>
<g class="st0">
	<path class="st1" d="M576.8,1057.7c-28,0-50.8-22.8-50.8-50.8c0-28,22.8-50.8,50.8-50.8s50.8,22.8,50.8,50.8
		C627.7,1034.9,604.9,1057.7,576.8,1057.7z M576.8,966.4c-22.3,0-40.4,18.1-40.4,40.4c0,22.3,18.1,40.4,40.4,40.4
		c22.3,0,40.4-18.1,40.4-40.4C617.2,984.6,599.1,966.4,576.8,966.4z"/>
</g>
<circle class="st2" cx="577.2" cy="1007.2" r="32"/>
<path class="st3" d="M1555.4,961.6H670.5c-23,0-41.8-18.8-41.8-41.8V296.4c0-23,18.8-41.8,41.8-41.8h884.9c23,0,41.8,18.8,41.8,41.8
	v623.3C1597.2,942.8,1578.3,961.6,1555.4,961.6z"/>
<path class="st4" d="M1560.9,955h-896c-19.8,0-36.2-16.4-36.2-36.2l0,0c0-19.8,16.4-36.2,36.2-36.2h896c19.8,0,36.2,16.4,36.2,36.2
	l0,0C1597.2,938.9,1580.8,955,1560.9,955z"/>
<path class="st5" d="M1555.4,955H670.5c-23,0-41.8-18.8-41.8-41.8V289.8c0-23,18.8-41.8,41.8-41.8h884.9c23,0,41.8,18.8,41.8,41.8
	v623.3C1597.2,936.2,1578.3,955,1555.4,955z"/>
<path class="st6" d="M1064.7,603.2H777.1c-23,0-41.8-18.8-41.8-41.8V391.5c0-23,18.8-41.8,41.8-41.8h287.6c23,0,41.8,18.8,41.8,41.8
	v169.9C1106.5,584.4,1087.7,603.2,1064.7,603.2z"/>
<path class="st7" d="M1080.7,840H849.5c-7,0-12.9-5.9-12.9-12.9V677.4c0-7,5.9-12.9,12.9-12.9h231.2c7,0,12.9,5.9,12.9,12.9v149.7
	C1093.6,834.1,1087.7,840,1080.7,840z"/>
<path class="st7" d="M1375.2,840h-241.7c-4.3,0-7.8-3.5-7.8-7.8V672c0-4.3,3.5-7.8,7.8-7.8h241.7c4.3,0,7.8,3.5,7.8,7.8v160.2
	C1383,836.5,1379.5,840,1375.2,840z"/>
<path class="st8" d="M1560.9,955h-896c-19.8,0-36.2-16.4-36.2-36.2l0,0c0-19.8,16.4-36.2,36.2-36.2h896c19.8,0,36.2,16.4,36.2,36.2
	l0,0C1597.2,938.9,1580.8,955,1560.9,955z"/>
<path class="st8" d="M1563,310.7H662.5c-18.8,0-33.8-15.3-33.8-33.8l0,0c0-18.8,15.3-33.8,33.8-33.8H1563
	c18.8,0,33.8,15.3,33.8,33.8l0,0C1597.2,295.4,1581.8,310.7,1563,310.7z"/>
<g class="st9">
	<line class="st10" x1="1191.5" y1="388" x2="1519.5" y2="388"/>
	<path class="st11" d="M1513.2,394.6h-315.5c-3.5,0-6.6-2.8-6.6-6.6l0,0c0-3.5,2.8-6.6,6.6-6.6h315.2c3.5,0,6.6,2.8,6.6,6.6l0,0
		C1519.5,391.5,1516.7,394.6,1513.2,394.6z"/>
</g>
<g class="st9">
	<line class="st10" x1="1191.5" y1="431.2" x2="1519.5" y2="431.2"/>
	<path class="st11" d="M1513.2,437.5h-315.5c-3.5,0-6.6-2.8-6.6-6.6l0,0c0-3.5,2.8-6.6,6.6-6.6h315.2c3.5,0,6.6,2.8,6.6,6.6l0,0
		C1519.5,434.7,1516.7,437.5,1513.2,437.5z"/>
</g>
<g class="st9">
	<line class="st10" x1="1191.5" y1="474" x2="1519.5" y2="474"/>
	<path class="st11" d="M1513.2,480.7h-315.5c-3.5,0-6.6-2.8-6.6-6.6l0,0c0-3.5,2.8-6.6,6.6-6.6h315.2c3.5,0,6.6,2.8,6.6,6.6l0,0
		C1519.5,477.9,1516.7,480.7,1513.2,480.7z"/>
</g>
<g class="st9">
	<line class="st10" x1="1191.5" y1="517.2" x2="1519.5" y2="517.2"/>
	<path class="st11" d="M1513.2,523.5h-315.5c-3.5,0-6.6-2.8-6.6-6.6l0,0c0-3.5,2.8-6.6,6.6-6.6h315.2c3.5,0,6.6,2.8,6.6,6.6l0,0
		C1519.5,520.7,1516.7,523.5,1513.2,523.5z"/>
</g>
<g class="st9">
	<line class="st10" x1="1191.5" y1="560.1" x2="1519.5" y2="560.1"/>
	<path class="st11" d="M1513.2,566.7h-315.5c-3.5,0-6.6-2.8-6.6-6.6l0,0c0-3.5,2.8-6.6,6.6-6.6h315.2c3.5,0,6.6,2.8,6.6,6.6l0,0
		C1519.5,563.9,1516.7,566.7,1513.2,566.7z"/>
</g>
<path class="st12" d="M941.1,471.9l163.7-110c2.8-2.1,3.8-5.9,1.7-9.1l0,0c-2.1-2.8-5.9-3.8-9.1-1.7l-172,116
	c-2.1,1.4-5.2,1.4-7.3,0L748.1,351.5c-2.8-2.1-7-1.4-9.1,1.7l0,0c-2.1,2.8-1.4,7,1.7,9.1l161.2,110c3.8,2.4,3.8,8,0,10.8
	L740.8,591.4c-2.8,2.1-3.8,5.9-1.7,9.1l0,0c2.1,2.8,5.9,3.8,9.1,1.7L917.7,488c2.1-1.4,5.2-1.4,7.3,0l172,117.4
	c2.8,2.1,7,1.4,9.1-1.7l0,0c2.1-2.8,1.4-7-1.7-9.1L940.7,483.1C937.2,480.3,937.2,474.7,941.1,471.9z"/>
<path class="st13" d="M1091.2,664.5L1091.2,664.5c-2.1-3.1-5.9-3.8-9.1-1.7l-120.5,80.8c-2.1,1.4-5.2,1.4-7.3,0L847,668.4
	c-2.8-2.1-7-1.4-9.1,1.7l0,0c-2.1,2.8-1.4,7,1.7,9.1l98.9,69.6c3.8,2.4,3.5,8,0,10.8L838,827.2c-3.1,2.1-3.8,5.9-1.7,9.1l0,0
	c2.1,3.1,5.9,3.8,9.1,1.7l109-73.1c2.1-1.4,5.2-1.4,7.3,0l110,77.3c2.8,2.1,7,1.4,9.1-1.7l0,0c2.1-2.8,1.4-7-1.7-9.1l-101.7-71.4
	c-3.8-2.4-3.5-8,0-10.8l112.1-75.2C1092.6,671.5,1093.3,667.7,1091.2,664.5z"/>
<path class="st13" d="M1381.9,666.6L1381.9,666.6c-2.1-3.1-5.9-3.8-9.1-1.7l-114.2,76.6c-2.1,1.4-5.2,1.4-7.3,0l-112.5-79.1
	c-2.8-2.1-7-1.4-9.1,1.4l0,0c-2.1,2.8-1.4,7,1.4,9.1l104.1,73.5c3.8,2.4,3.5,8,0,10.8l-106.6,71.7c-3.1,2.1-3.8,5.9-1.7,9.1l0,0
	c2.1,3.1,5.9,3.8,9.1,1.7l115.3-77.3c2.1-1.4,5.2-1.4,7.3,0l112.5,79.1c2.8,2.1,7,1.4,9.1-1.4l0,0c2.1-2.8,1.4-7-1.4-9.1
	l-104.1-73.5c-3.8-2.4-3.5-8,0-10.8l106.2-71C1383,673.6,1383.7,669.7,1381.9,666.6z"/>
<g>
	<path d="M1029.9,256.4L1029.9,256.4c-21.9,0-39.7-17.8-39.7-39.7v-22.6c0-21.9,17.8-39.7,39.7-39.7l0,0c21.9,0,39.7,17.8,39.7,39.7
		v22.6C1069.6,238.6,1051.8,256.4,1029.9,256.4z"/>
	<path class="st14" d="M1006.5,223.3v-35.5c0-17.8,13.9-32.4,31.7-33.1c-0.7,0-1,0-1.7,0h-13.2c-18.5,0-33.1,15-33.1,33.1v35.5
		c0,18.5,15,33.1,33.1,33.1h13.2c0.7,0,1,0,1.7,0C1020.8,255.3,1006.5,241.1,1006.5,223.3z"/>
	<path d="M1680,265.4L1680,265.4c-21.9,0-39.7-17.8-39.7-39.7v-22.6c0-21.9,17.8-39.7,39.7-39.7l0,0c21.9,0,39.7,17.8,39.7,39.7
		v22.6C1719.7,247.7,1702,265.4,1680,265.4z"/>
	<path class="st14" d="M1686.7,163.4h-7.3c-18.5,0-33.1,15-33.1,33.1V232c0,18.5,15,33.1,33.1,33.1h7.3V163.4z"/>
	<path d="M1365.9,98.6h-5.2h-277.2c-19.8,0-35.9,16-35.9,35.9v104.8c0,49.8,35.5,90.5,79.7,90.5h159.1c36.9,0,67.9-28.6,77-67.2
		c9.1,38.7,40,67.2,77,67.2h159.1c43.9,0,79.7-40.4,79.7-90.5V134.5c0-19.8-16-35.9-35.9-35.9C1643.5,98.6,1365.9,98.6,1365.9,98.6z
		"/>
	<path class="st15" d="M1305.7,118.1h-139.3c-53.3,0-96.8,43.5-96.8,96.8l0,0c0,53.3,43.5,96.8,96.8,96.8h76.6
		c53.3,0,96.8-43.5,96.8-96.8v-62.7C1339.8,133.8,1324.5,118.1,1305.7,118.1z"/>
	<path class="st15" d="M1622.6,118.1h-139.3c-53.3,0-96.8,43.5-96.8,96.8l0,0c0,53.3,43.5,96.8,96.8,96.8h76.6
		c53.3,0,96.8-43.5,96.8-96.8v-62.7C1656.7,133.8,1641.4,118.1,1622.6,118.1z"/>
	<g class="st16">
		<path class="st14" d="M1126.7,238.3V124.1h-49.4v114.2c0,40.4,35.5,73.1,79.7,73.1h49.4C1162.6,311.8,1126.7,278.7,1126.7,238.3z"
			/>
	</g>
	<path class="st17" d="M1102.7,238.3V124.1h-19.5v114.2c0,40.4,35.5,73.1,79.7,73.1h19.5C1138.5,311.8,1102.7,278.7,1102.7,238.3z"
		/>
	<g class="st16">
		<path class="st14" d="M1459.9,238.6V124.4h-49.4v114.2c0,40.4,35.5,73.5,79.7,73.5h49.4C1495.8,311.8,1459.9,279,1459.9,238.6z"/>
	</g>
	<path class="st17" d="M1435.9,238.6V124.4h-19.5v114.2c0,40.4,35.5,73.5,79.7,73.5h19.5C1471.8,311.8,1435.9,279,1435.9,238.6z"/>
</g>
<linearGradient id="SVGID_1_" gradientUnits="userSpaceOnUse" x1="860.9776" y1="937.8317" x2="948.1375" y2="937.8317" gradientTransform="matrix(1 0 0 -1 0 1080)">
	<stop  offset="0" style="stop-color:#FF7BAC"/>
	<stop  offset="1" style="stop-color:#FF7BAC;stop-opacity:0"/>
</linearGradient>
<circle class="st18" cx="904.5" cy="142.2" r="43.5"/>
<linearGradient id="SVGID_2_" gradientUnits="userSpaceOnUse" x1="193.9961" y1="522.9248" x2="805.0164" y2="522.9248" gradientTransform="matrix(1 0 0 -1 0 1080)">
	<stop  offset="0" style="stop-color:#FF7BAC"/>
	<stop  offset="1" style="stop-color:#FF7BAC;stop-opacity:0"/>
</linearGradient>
<path class="st19" d="M518,934.8l-291.8-124c-25.4-9.1-38.3-37.3-29.3-62.3l207.9-539.8c9.1-25.4,37.3-38.3,62.3-29.3l305.8,48.4
	c25.4,9.1,38.3,37.3,29.3,62.3L580.6,905.5C571.2,930.6,543.4,943.8,518,934.8z"/>
<g>
	<polygon class="st20" points="506.1,543.7 499.9,532.5 576.1,489 539.9,398.1 551.7,393.6 592.5,494.6 	"/>
</g>
<g>
	<path class="st20" d="M479.7,877c-6.3,0-12.9-1-18.8-3.5h-0.3l-291.8-124c-13.9-5.2-25.1-15.3-31.3-28.9c-6.3-13.6-7-28.6-2.1-42.5
		l0,0l207.9-539.8c5.2-13.9,15.3-25.1,28.9-31.3c13.2-6.3,28.2-7,42.1-2.1l305.8,48.4l0.7,0.3c13.9,4.9,25.1,15.3,31.7,28.9
		c6.3,13.6,7,28.6,2.1,42.5L532.2,840c-4.9,13.9-15.3,25.1-28.9,31.7C495.7,875.2,487.7,877,479.7,877z M465.7,860.6
		c10.4,3.8,21.6,3.1,31.7-1.7c10.1-4.9,17.8-13.2,21.6-23.7l222.2-615c3.8-10.4,3.1-21.9-1.4-32c-4.5-10.1-12.9-17.4-23-21.2
		l-306.1-48.8l-0.7-0.3c-10.4-3.8-21.9-3.1-32,1.4c-10.1,4.9-17.8,13.2-21.6,23.7l0,0L148.5,682.6c-3.8,10.4-3.1,21.6,1.4,32
		c4.9,10.1,13.2,17.8,23.7,21.6h0.3L465.7,860.6z"/>
</g>
<g>
	<line class="st10" x1="152" y1="653.7" x2="535.7" y2="810.1"/>
	
		<rect x="337.5" y="524.8" transform="matrix(0.378 -0.9258 0.9258 0.378 -463.8049 773.6949)" class="st20" width="12.9" height="414.4"/>
</g>
<circle class="st20" cx="310.1" cy="757.2" r="25.8"/>
<rect x="280.3" y="416.4" transform="matrix(0.5 -0.866 0.866 0.5 -146.8482 594.1617)" class="st20" width="321.8" height="15.7"/>
<g>
	<polygon class="st20" points="335.8,440.6 314.6,343.5 417.3,306.5 421.5,318.4 329.9,351.8 348.4,437.8 	"/>
</g>
<path class="st2" d="M1613.5,546.1c-5.6,0-11.1,0.7-16.7,1.7v161.2c5.2,1,10.8,1.7,16.7,1.7c45.6,0,82.2-36.9,82.2-82.2
	C1696.1,583,1659.1,546.1,1613.5,546.1z"/>
<path class="st2" d="M1612.8,503.3c-3.5,0-7,0-10.4,0.3v13.9c3.5-0.3,7-0.3,10.4-0.3c60.9,0,110.4,49.4,110.4,110.4
	c0,60.9-49.4,110.7-110.4,110.7c-3.5,0-7-0.3-10.4-0.3v13.9c3.5,0.3,7,0.3,10.4,0.3c68.6,0,124.7-55.7,124.7-124.7
	S1681.8,503.3,1612.8,503.3z"/>
</svg>
