<?xml version="1.0" encoding="utf-8"?>
<!-- Generator: Adobe Illustrator 22.0.0, SVG Export Plug-In . SVG Version: 6.00 Build 0)  -->
<svg version="1.1" id="Layer_1" xmlns="http://www.w3.org/2000/svg" xmlns:xlink="http://www.w3.org/1999/xlink" x="0px" y="0px"
	 viewBox="0 0 512 512" style="enable-background:new 0 0 512 512;" xml:space="preserve">
<style type="text/css">
	.st0{opacity:0.3;fill:none;stroke:#837FA5;stroke-width:3;stroke-miterlimit:10;}
	.st1{opacity:0.3;fill:#837FA5;}
	.st2{opacity:0.72;fill:#D7ECF9;}
	.st3{fill:#D4E8FF;}
	.st4{opacity:0.72;fill:none;stroke:#8AC1DD;stroke-width:3;stroke-miterlimit:10;}
	.st5{fill:#FFFFFF;}
	.st6{opacity:0.72;fill:#FFFFFF;}
	.st7{opacity:0.72;fill:#8AC1DD;}
	.st8{opacity:0.72;}
	.st9{fill:#8AC1DD;}
	.st10{opacity:0.5;fill:#8AC1DD;}
	.st11{opacity:0.52;fill:#8AC1DD;}
	.st12{fill:#606060;}
	.st13{opacity:0.25;fill:#FFFFFF;}
	.st14{opacity:0.44;}
	.st15{opacity:0.44;fill:#FFFFFF;}
	.st16{opacity:0.58;fill:url(#SVGID_1_);}
	.st17{opacity:0.58;fill:url(#SVGID_2_);}
	.st18{fill:#C89FA2;}
</style>
<circle class="st0" cx="62.1" cy="149.7" r="29.4"/>
<circle class="st1" cx="62.3" cy="149" r="21.3"/>
<circle class="st0" cx="153.7" cy="376.1" r="13.1"/>
<circle class="st1" cx="153.8" cy="376.2" r="9.2"/>
<path class="st2" d="M434.7,363.1H180.6c-6.6,0-12-5.4-12-12v-179c0-6.6,5.4-12,12-12h254.1c6.6,0,12,5.4,12,12v179
	C446.7,357.7,441.3,363.1,434.7,363.1z"/>
<path class="st3" d="M436.3,361.2H179c-5.7,0-10.4-4.7-10.4-10.4l0,0c0-5.7,4.7-10.4,10.4-10.4h257.3c5.7,0,10.4,4.7,10.4,10.4l0,0
	C446.7,356.6,442,361.2,436.3,361.2z"/>
<path class="st4" d="M434.7,361.2H180.6c-6.6,0-12-5.4-12-12v-179c0-6.6,5.4-12,12-12h254.1c6.6,0,12,5.4,12,12v179
	C446.7,355.8,441.3,361.2,434.7,361.2z"/>
<path class="st5" d="M293.8,260.2h-82.6c-6.6,0-12-5.4-12-12v-48.8c0-6.6,5.4-12,12-12h82.6c6.6,0,12,5.4,12,12v48.8
	C305.8,254.8,300.4,260.2,293.8,260.2z"/>
<path class="st6" d="M298.4,328.2h-66.4c-2,0-3.7-1.7-3.7-3.7v-43c0-2,1.7-3.7,3.7-3.7h66.4c2,0,3.7,1.7,3.7,3.7v43
	C302.1,326.5,300.4,328.2,298.4,328.2z"/>
<path class="st6" d="M373.2,328.2h-49.9c-6.6,0-12-5.4-12-12v-26.5c0-6.6,5.4-12,12-12h49.9c6.6,0,12,5.4,12,12v26.5
	C385.2,322.8,379.8,328.2,373.2,328.2z"/>
<path class="st7" d="M436.3,361.2H179c-5.7,0-10.4-4.7-10.4-10.4l0,0c0-5.7,4.7-10.4,10.4-10.4h257.3c5.7,0,10.4,4.7,10.4,10.4l0,0
	C446.7,356.6,442,361.2,436.3,361.2z"/>
<path class="st7" d="M436.9,176.2H178.3c-5.4,0-9.7-4.4-9.7-9.7v0c0-5.4,4.4-9.7,9.7-9.7h258.6c5.4,0,9.7,4.4,9.7,9.7v0
	C446.7,171.8,442.3,176.2,436.9,176.2z"/>
<g class="st8">
	<line class="st9" x1="330.2" y1="198.4" x2="424.4" y2="198.4"/>
	<path class="st9" d="M422.6,200.3H332c-1,0-1.9-0.8-1.9-1.9l0,0c0-1,0.8-1.9,1.9-1.9h90.5c1,0,1.9,0.8,1.9,1.9l0,0
		C424.4,199.4,423.6,200.3,422.6,200.3z"/>
</g>
<g class="st8">
	<line class="st9" x1="330.2" y1="210.8" x2="424.4" y2="210.8"/>
	<path class="st9" d="M422.6,212.6H332c-1,0-1.9-0.8-1.9-1.9v0c0-1,0.8-1.9,1.9-1.9h90.5c1,0,1.9,0.8,1.9,1.9v0
		C424.4,211.8,423.6,212.6,422.6,212.6z"/>
</g>
<g class="st8">
	<line class="st9" x1="330.2" y1="223.1" x2="424.4" y2="223.1"/>
	<path class="st9" d="M422.6,225H332c-1,0-1.9-0.8-1.9-1.9l0,0c0-1,0.8-1.9,1.9-1.9h90.5c1,0,1.9,0.8,1.9,1.9l0,0
		C424.4,224.2,423.6,225,422.6,225z"/>
</g>
<g class="st8">
	<line class="st9" x1="330.2" y1="235.5" x2="424.4" y2="235.5"/>
	<path class="st9" d="M422.6,237.3H332c-1,0-1.9-0.8-1.9-1.9l0,0c0-1,0.8-1.9,1.9-1.9h90.5c1,0,1.9,0.8,1.9,1.9l0,0
		C424.4,236.5,423.6,237.3,422.6,237.3z"/>
</g>
<g class="st8">
	<line class="st9" x1="330.2" y1="247.8" x2="424.4" y2="247.8"/>
	<path class="st9" d="M422.6,249.7H332c-1,0-1.9-0.8-1.9-1.9l0,0c0-1,0.8-1.9,1.9-1.9h90.5c1,0,1.9,0.8,1.9,1.9l0,0
		C424.4,248.9,423.6,249.7,422.6,249.7z"/>
</g>
<path class="st10" d="M258.3,222.5l47-31.6c0.8-0.6,1.1-1.7,0.5-2.6l0,0c-0.6-0.8-1.7-1.1-2.6-0.5l-49.4,33.3
	c-0.6,0.4-1.5,0.4-2.1,0l-48.8-33.2c-0.8-0.6-2-0.4-2.6,0.5v0c-0.6,0.8-0.4,2,0.5,2.6l46.3,31.6c1.1,0.7,1.1,2.3,0,3.1l-46.3,31.1
	c-0.8,0.6-1.1,1.7-0.5,2.6l0,0c0.6,0.8,1.7,1.1,2.6,0.5l48.7-32.8c0.6-0.4,1.5-0.4,2.1,0l49.4,33.7c0.8,0.6,2,0.4,2.6-0.5l0,0
	c0.6-0.8,0.4-2-0.5-2.6l-47-32C257.2,224.9,257.2,223.3,258.3,222.5z"/>
<path class="st11" d="M301.4,277.8L301.4,277.8c-0.6-0.9-1.7-1.1-2.6-0.5l-34.6,23.2c-0.6,0.4-1.5,0.4-2.1,0l-30.8-21.6
	c-0.8-0.6-2-0.4-2.6,0.5l0,0c-0.6,0.8-0.4,2,0.5,2.6l28.4,20c1.1,0.7,1,2.3,0,3.1l-28.9,19.4c-0.9,0.6-1.1,1.7-0.5,2.6l0,0
	c0.6,0.9,1.7,1.1,2.6,0.5l31.3-21c0.6-0.4,1.5-0.4,2.1,0l31.6,22.2c0.8,0.6,2,0.4,2.6-0.5l0,0c0.6-0.8,0.4-2-0.5-2.6l-29.2-20.5
	c-1.1-0.7-1-2.3,0-3.1l32.2-21.6C301.8,279.8,302,278.7,301.4,277.8z"/>
<path class="st11" d="M384.9,278.4L384.9,278.4c-0.6-0.9-1.7-1.1-2.6-0.5l-32.8,22c-0.6,0.4-1.5,0.4-2.1,0l-32.3-22.7
	c-0.8-0.6-2-0.4-2.6,0.4l0,0c-0.6,0.8-0.4,2,0.4,2.6l29.9,21.1c1.1,0.7,1,2.3,0,3.1L312.2,325c-0.9,0.6-1.1,1.7-0.5,2.6l0,0
	c0.6,0.9,1.7,1.1,2.6,0.5l33.1-22.2c0.6-0.4,1.5-0.4,2.1,0l32.3,22.7c0.8,0.6,2,0.4,2.6-0.4l0,0c0.6-0.8,0.4-2-0.4-2.6l-29.9-21.1
	c-1.1-0.7-1-2.3,0-3.1l30.5-20.4C385.2,280.4,385.4,279.3,384.9,278.4z"/>
<g>
	<path d="M283.8,160.6L283.8,160.6c-6.3,0-11.4-5.1-11.4-11.4v-6.5c0-6.3,5.1-11.4,11.4-11.4h0c6.3,0,11.4,5.1,11.4,11.4v6.5
		C295.2,155.5,290.1,160.6,283.8,160.6z"/>
	<path class="st12" d="M277.1,151.1v-10.2c0-5.1,4-9.3,9.1-9.5c-0.2,0-0.3,0-0.5,0h-3.8c-5.3,0-9.5,4.3-9.5,9.5v10.2
		c0,5.3,4.3,9.5,9.5,9.5h3.8c0.2,0,0.3,0,0.5,0C281.2,160.3,277.1,156.2,277.1,151.1z"/>
	<path d="M470.5,163.2L470.5,163.2c-6.3,0-11.4-5.1-11.4-11.4v-6.5c0-6.3,5.1-11.4,11.4-11.4h0c6.3,0,11.4,5.1,11.4,11.4v6.5
		C481.9,158.1,476.8,163.2,470.5,163.2z"/>
	<path class="st12" d="M472.4,133.9h-2.1c-5.3,0-9.5,4.3-9.5,9.5v10.2c0,5.3,4.3,9.5,9.5,9.5h2.1V133.9z"/>
	<path d="M380.3,115.3h-1.5h-79.6c-5.7,0-10.3,4.6-10.3,10.3v30.1c0,14.3,10.2,26,22.9,26h45.7c10.6,0,19.5-8.2,22.1-19.3
		c2.6,11.1,11.5,19.3,22.1,19.3h45.7c12.6,0,22.9-11.6,22.9-26v-30.1c0-5.7-4.6-10.3-10.3-10.3H380.3z"/>
	<path class="st13" d="M363,120.9h-40c-15.3,0-27.8,12.5-27.8,27.8v0c0,15.3,12.5,27.8,27.8,27.8h22c15.3,0,27.8-12.5,27.8-27.8v-18
		C372.8,125.4,368.4,120.9,363,120.9z"/>
	<path class="st13" d="M454,120.9h-40c-15.3,0-27.8,12.5-27.8,27.8v0c0,15.3,12.5,27.8,27.8,27.8h22c15.3,0,27.8-12.5,27.8-27.8v-18
		C463.8,125.4,459.4,120.9,454,120.9z"/>
	<g class="st14">
		<path class="st12" d="M311.6,155.4v-32.8h-14.2v32.8c0,11.6,10.2,21,22.9,21h14.2C321.9,176.5,311.6,167,311.6,155.4z"/>
	</g>
	<path class="st15" d="M304.7,155.4v-32.8h-5.6v32.8c0,11.6,10.2,21,22.9,21h5.6C315,176.5,304.7,167,304.7,155.4z"/>
	<g class="st14">
		<path class="st12" d="M407.3,155.5v-32.8h-14.2v32.8c0,11.6,10.2,21.1,22.9,21.1h14.2C417.6,176.5,407.3,167.1,407.3,155.5z"/>
	</g>
	<path class="st15" d="M400.4,155.5v-32.8h-5.6v32.8c0,11.6,10.2,21.1,22.9,21.1h5.6C410.7,176.5,400.4,167.1,400.4,155.5z"/>
</g>
<linearGradient id="SVGID_1_" gradientUnits="userSpaceOnUse" x1="235.3223" y1="127.8017" x2="260.3511" y2="127.8017">
	<stop  offset="0" style="stop-color:#FF7BAC"/>
	<stop  offset="1" style="stop-color:#FF7BAC;stop-opacity:0"/>
</linearGradient>
<circle class="st16" cx="247.8" cy="127.8" r="12.5"/>
<linearGradient id="SVGID_2_" gradientUnits="userSpaceOnUse" x1="43.7396" y1="246.9276" x2="219.3508" y2="246.9276">
	<stop  offset="0" style="stop-color:#FF7BAC"/>
	<stop  offset="1" style="stop-color:#FF7BAC;stop-opacity:0"/>
</linearGradient>
<path class="st17" d="M136.8,355.4L53,319.8c-7.3-2.6-11-10.7-8.4-17.9l59.7-155c2.6-7.3,10.7-11,17.9-8.4l87.8,13.9
	c7.3,2.6,11,10.7,8.4,17.9L154.8,347C152.1,354.2,144.1,358,136.8,355.4z"/>
<g>
	<polygon class="st18" points="133.4,243.1 131.6,239.9 153.5,227.4 143.1,201.3 146.5,200 158.2,229 	"/>
</g>
<g>
	<path class="st18" d="M125.8,338.8c-1.8,0-3.7-0.3-5.4-1l-0.1,0l-83.8-35.6c-4-1.5-7.2-4.4-9-8.3c-1.8-3.9-2-8.2-0.6-12.2l0,0
		l59.7-155c1.5-4,4.4-7.2,8.3-9c3.8-1.8,8.1-2,12.1-0.6l87.8,13.9l0.2,0.1c4,1.4,7.2,4.4,9.1,8.3c1.8,3.9,2,8.2,0.6,12.2
		l-63.8,176.6c-1.4,4-4.4,7.2-8.3,9.1C130.4,338.3,128.1,338.8,125.8,338.8z M121.8,334.1c3,1.1,6.2,0.9,9.1-0.5
		c2.9-1.4,5.1-3.8,6.2-6.8l63.8-176.6c1.1-3,0.9-6.3-0.4-9.2c-1.3-2.9-3.7-5-6.6-6.1L106,120.9l-0.2-0.1c-3-1.1-6.3-0.9-9.2,0.4
		c-2.9,1.4-5.1,3.8-6.2,6.8l0,0l-59.7,155c-1.1,3-0.9,6.2,0.4,9.2c1.4,2.9,3.8,5.1,6.8,6.2l0.1,0L121.8,334.1z"/>
</g>
<g>
	<line class="st18" x1="31.7" y1="274.7" x2="141.9" y2="319.6"/>
	
		<rect x="84.9" y="237.7" transform="matrix(0.378 -0.9258 0.9258 0.378 -221.1244 265.1531)" class="st18" width="3.7" height="119"/>
</g>
<circle class="st18" cx="77.1" cy="304.4" r="7.4"/>
<rect x="112.5" y="162.6" transform="matrix(0.866 0.5 -0.5 0.866 119.7668 -29.3913)" class="st18" width="4.5" height="92.4"/>
<g>
	<polygon class="st18" points="84.5,213.5 78.4,185.6 107.9,175 109.1,178.4 82.8,188 88.1,212.7 	"/>
</g>
<path class="st1" d="M451.4,243.8c-1.6,0-3.2,0.2-4.8,0.5v46.3c1.5,0.3,3.1,0.5,4.8,0.5c13.1,0,23.6-10.6,23.6-23.6
	C475.1,254.4,464.5,243.8,451.4,243.8z"/>
<path class="st1" d="M451.2,231.5c-1,0-2,0-3,0.1v4c1-0.1,2-0.1,3-0.1c17.5,0,31.7,14.2,31.7,31.7S468.7,299,451.2,299
	c-1,0-2-0.1-3-0.1v4c1,0.1,2,0.1,3,0.1c19.7,0,35.8-16,35.8-35.8S471,231.5,451.2,231.5z"/>
</svg>
